<svg width="22" height="21" viewBox="0 0 22 21" fill="none" xmlns="http://www.w3.org/2000/svg">
<g id="fi-rr-edit" clip-path="url(#clip0_479_1040)">
<path id="Vector" d="M16.8243 0.814057L6.15626 11.4821C5.74881 11.8873 5.42579 12.3694 5.20591 12.9003C4.98602 13.4312 4.87364 14.0005 4.87526 14.5752V15.7503C4.87526 15.9824 4.96745 16.2049 5.13154 16.369C5.29564 16.5331 5.5182 16.6253 5.75026 16.6253H6.92539C7.50005 16.6269 8.06934 16.5145 8.60027 16.2947C9.13121 16.0748 9.61326 15.7518 10.0185 15.3443L20.6865 4.67631C21.1979 4.16371 21.485 3.46922 21.485 2.74518C21.485 2.02114 21.1979 1.32666 20.6865 0.814057C20.1665 0.316964 19.4748 0.0395508 18.7554 0.0395508C18.036 0.0395508 17.3443 0.316964 16.8243 0.814057ZM19.4493 3.43906L8.78126 14.1071C8.28787 14.5974 7.62102 14.8735 6.92539 14.8753H6.62526V14.5752C6.62708 13.8796 6.90313 13.2127 7.39351 12.7193L18.0615 2.05131C18.2484 1.87277 18.4969 1.77314 18.7554 1.77314C19.0139 1.77314 19.2624 1.87277 19.4493 2.05131C19.633 2.23551 19.7361 2.48504 19.7361 2.74518C19.7361 3.00533 19.633 3.25486 19.4493 3.43906Z" fill="white"/>
<path id="Vector_2" d="M20.625 7.85663C20.3929 7.85663 20.1704 7.94881 20.0063 8.11291C19.8422 8.277 19.75 8.49956 19.75 8.73162V13.125H16.25C15.5538 13.125 14.8861 13.4016 14.3938 13.8938C13.9016 14.3861 13.625 15.0538 13.625 15.75V19.25H4.875C4.17881 19.25 3.51113 18.9734 3.01884 18.4812C2.52656 17.9889 2.25 17.3212 2.25 16.625V4.375C2.25 3.67881 2.52656 3.01113 3.01884 2.51884C3.51113 2.02656 4.17881 1.75 4.875 1.75H12.7868C13.0188 1.75 13.2414 1.65781 13.4055 1.49372C13.5696 1.32962 13.6618 1.10706 13.6618 0.875C13.6618 0.642936 13.5696 0.420376 13.4055 0.256282C13.2414 0.0921872 13.0188 0 12.7868 0L4.875 0C3.7151 0.00138938 2.60311 0.462772 1.78294 1.28294C0.962772 2.10311 0.501389 3.2151 0.5 4.375L0.5 16.625C0.501389 17.7849 0.962772 18.8969 1.78294 19.7171C2.60311 20.5372 3.7151 20.9986 4.875 21H14.8001C15.3749 21.0016 15.9443 20.8893 16.4754 20.6694C17.0065 20.4495 17.4887 20.1265 17.8941 19.719L20.2181 17.3932C20.6257 16.988 20.9488 16.506 21.1688 15.9751C21.3888 15.4441 21.5014 14.8748 21.5 14.3001V8.73162C21.5 8.49956 21.4078 8.277 21.2437 8.11291C21.0796 7.94881 20.8571 7.85663 20.625 7.85663ZM16.6569 18.4818C16.3051 18.8326 15.8603 19.0755 15.375 19.1818V15.75C15.375 15.5179 15.4672 15.2954 15.6313 15.1313C15.7954 14.9672 16.0179 14.875 16.25 14.875H19.6844C19.5761 15.3593 19.3335 15.8033 18.9844 16.156L16.6569 18.4818Z" fill="white"/>
</g>
<defs>
<clipPath id="clip0_479_1040">
<rect width="21" height="21" fill="white" transform="translate(0.5)"/>
</clipPath>
</defs>
</svg>
