<svg width="25" height="24" viewBox="0 0 25 24" fill="none" xmlns="http://www.w3.org/2000/svg">
<g id="fi-rr-search-alt" clip-path="url(#clip0_479_759)">
<path id="Vector" d="M16.3335 6C16.5987 6 16.8531 6.10536 17.0406 6.29289C17.2281 6.48043 17.3335 6.73478 17.3335 7C17.3335 7.26522 17.2281 7.51957 17.0406 7.70711C16.8531 7.89464 16.5987 8 16.3335 8H8.3335C8.06828 8 7.81393 7.89464 7.62639 7.70711C7.43885 7.51957 7.3335 7.26522 7.3335 7C7.3335 6.73478 7.43885 6.48043 7.62639 6.29289C7.81393 6.10536 8.06828 6 8.3335 6H16.3335ZM24.0405 23.707C23.853 23.8945 23.5987 23.9998 23.3335 23.9998C23.0683 23.9998 22.814 23.8945 22.6265 23.707L20.2195 21.3C19.5067 21.755 18.6791 21.9977 17.8335 22C16.9435 22 16.0735 21.7361 15.3334 21.2416C14.5934 20.7471 14.0166 20.0443 13.676 19.2221C13.3354 18.3998 13.2463 17.495 13.42 16.6221C13.5936 15.7492 14.0222 14.9474 14.6515 14.318C15.2809 13.6887 16.0827 13.2601 16.9556 13.0865C17.8285 12.9128 18.7333 13.0019 19.5556 13.3425C20.3778 13.6831 21.0806 14.2599 21.5751 14.9999C22.0696 15.74 22.3335 16.61 22.3335 17.5C22.3312 18.3456 22.0885 19.1732 21.6335 19.886L24.0405 22.293C24.228 22.4805 24.3333 22.7348 24.3333 23C24.3333 23.2652 24.228 23.5195 24.0405 23.707ZM17.8335 20C18.3279 20 18.8113 19.8534 19.2224 19.5787C19.6335 19.304 19.954 18.9135 20.1432 18.4567C20.3324 17.9999 20.3819 17.4972 20.2855 17.0123C20.189 16.5273 19.9509 16.0819 19.6013 15.7322C19.2516 15.3826 18.8062 15.1445 18.3212 15.048C17.8363 14.9516 17.3336 15.0011 16.8768 15.1903C16.42 15.3795 16.0295 15.7 15.7548 16.1111C15.4801 16.5222 15.3335 17.0055 15.3335 17.5C15.3335 18.163 15.5969 18.7989 16.0657 19.2678C16.5346 19.7366 17.1705 20 17.8335 20ZM13.3335 22H7.3335C6.53785 22 5.77479 21.6839 5.21218 21.1213C4.64957 20.5587 4.3335 19.7956 4.3335 19V5C4.3335 4.20435 4.64957 3.44129 5.21218 2.87868C5.77479 2.31607 6.53785 2 7.3335 2H19.3335C19.5987 2 19.8531 2.10536 20.0406 2.29289C20.2281 2.48043 20.3335 2.73478 20.3335 3V11C20.3335 11.2652 20.4389 11.5196 20.6264 11.7071C20.8139 11.8946 21.0683 12 21.3335 12C21.5987 12 21.8531 11.8946 22.0406 11.7071C22.2281 11.5196 22.3335 11.2652 22.3335 11V3C22.3335 2.20435 22.0174 1.44129 21.4548 0.87868C20.8922 0.31607 20.1291 0 19.3335 0L7.3335 0C6.0079 0.00158786 4.73705 0.528882 3.79972 1.46622C2.86238 2.40356 2.33508 3.67441 2.3335 5V19C2.33508 20.3256 2.86238 21.5964 3.79972 22.5338C4.73705 23.4711 6.0079 23.9984 7.3335 24H13.3335C13.5987 24 13.8531 23.8946 14.0406 23.7071C14.2281 23.5196 14.3335 23.2652 14.3335 23C14.3335 22.7348 14.2281 22.4804 14.0406 22.2929C13.8531 22.1054 13.5987 22 13.3335 22Z" fill="#BDC3DB"/>
</g>
<defs>
<clipPath id="clip0_479_759">
<rect width="24" height="24" fill="white" transform="translate(0.333252)"/>
</clipPath>
</defs>
</svg>
