<svg width="16" height="16" viewBox="0 0 16 16" fill="none" xmlns="http://www.w3.org/2000/svg">
<g id="fi-rr-smartphone" clip-path="url(#clip0_479_945)">
<path id="Vector" d="M10.0001 0H6.00008C5.11635 0.00105857 4.26912 0.352588 3.64423 0.97748C3.01934 1.60237 2.66781 2.4496 2.66675 3.33333V12.6667C2.66781 13.5504 3.01934 14.3976 3.64423 15.0225C4.26912 15.6474 5.11635 15.9989 6.00008 16H10.0001C10.8838 15.9989 11.731 15.6474 12.3559 15.0225C12.9808 14.3976 13.3324 13.5504 13.3334 12.6667V3.33333C13.3324 2.4496 12.9808 1.60237 12.3559 0.97748C11.731 0.352588 10.8838 0.00105857 10.0001 0V0ZM6.00008 1.33333H10.0001C10.5305 1.33333 11.0392 1.54405 11.4143 1.91912C11.7894 2.29419 12.0001 2.8029 12.0001 3.33333V10.6667H4.00008V3.33333C4.00008 2.8029 4.2108 2.29419 4.58587 1.91912C4.96094 1.54405 5.46965 1.33333 6.00008 1.33333ZM10.0001 14.6667H6.00008C5.46965 14.6667 4.96094 14.456 4.58587 14.0809C4.2108 13.7058 4.00008 13.1971 4.00008 12.6667V12H12.0001V12.6667C12.0001 13.1971 11.7894 13.7058 11.4143 14.0809C11.0392 14.456 10.5305 14.6667 10.0001 14.6667Z" fill="#9CA5C9"/>
<path id="Vector_2" d="M8.00017 13.9996C8.36836 13.9996 8.66684 13.7011 8.66684 13.3329C8.66684 12.9647 8.36836 12.6663 8.00017 12.6663C7.63197 12.6663 7.3335 12.9647 7.3335 13.3329C7.3335 13.7011 7.63197 13.9996 8.00017 13.9996Z" fill="#9CA5C9"/>
</g>
<defs>
<clipPath id="clip0_479_945">
<rect width="16" height="16" fill="white"/>
</clipPath>
</defs>
</svg>
