<svg width="43" height="42" viewBox="0 0 43 42" fill="none" xmlns="http://www.w3.org/2000/svg">
<g id="fi-rr-folder" clip-path="url(#clip0_479_1118)">
<path id="Vector" d="M33.75 5.25049H22.326C22.0553 5.25227 21.7878 5.19243 21.5437 5.07549L16.0208 2.30349C15.2917 1.94044 14.4885 1.75116 13.674 1.75049H9.25C6.93021 1.75327 4.70623 2.67603 3.06588 4.31637C1.42554 5.95671 0.502779 8.1807 0.5 10.5005L0.5 31.5005C0.502779 33.8203 1.42554 36.0443 3.06588 37.6846C4.70623 39.3249 6.93021 40.2477 9.25 40.2505H33.75C36.0698 40.2477 38.2938 39.3249 39.9341 37.6846C41.5745 36.0443 42.4972 33.8203 42.5 31.5005V14.0005C42.4972 11.6807 41.5745 9.45671 39.9341 7.81637C38.2938 6.17603 36.0698 5.25327 33.75 5.25049ZM9.25 5.25049H13.674C13.9447 5.2487 14.2122 5.30855 14.4563 5.42549L19.9792 8.18874C20.7076 8.55481 21.5109 8.7471 22.326 8.75049H33.75C34.7966 8.7522 35.8187 9.06666 36.6853 9.65351C37.5518 10.2404 38.2232 11.0728 38.6133 12.044L4 12.24V10.5005C4 9.1081 4.55312 7.77274 5.53769 6.78818C6.52226 5.80361 7.85761 5.25049 9.25 5.25049ZM33.75 36.7505H9.25C7.85761 36.7505 6.52226 36.1974 5.53769 35.2128C4.55312 34.2282 4 32.8929 4 31.5005V15.74L39 15.5422V31.5005C39 32.8929 38.4469 34.2282 37.4623 35.2128C36.4777 36.1974 35.1424 36.7505 33.75 36.7505Z" fill="#BDC3DB"/>
</g>
<defs>
<clipPath id="clip0_479_1118">
<rect width="42" height="42" fill="white" transform="translate(0.5)"/>
</clipPath>
</defs>
</svg>
