<svg width="48" height="48" viewBox="0 0 48 48" fill="none" xmlns="http://www.w3.org/2000/svg">
<g id="File Icon">
<rect width="48" height="48" rx="10" fill="#F3E9D8"/>
<g id="PDF">
<path d="M13 28.7273V20H16.4432C17.1051 20 17.669 20.1264 18.1349 20.3793C18.6009 20.6293 18.956 20.9773 19.2003 21.4233C19.4474 21.8665 19.571 22.3778 19.571 22.9574C19.571 23.5369 19.446 24.0483 19.196 24.4915C18.946 24.9347 18.5838 25.2798 18.1094 25.527C17.6378 25.7741 17.0668 25.8977 16.3963 25.8977H14.2017V24.419H16.098C16.4531 24.419 16.7457 24.358 16.9759 24.2358C17.2088 24.1108 17.3821 23.9389 17.4957 23.7202C17.6122 23.4986 17.6705 23.2443 17.6705 22.9574C17.6705 22.6676 17.6122 22.4148 17.4957 22.1989C17.3821 21.9801 17.2088 21.8111 16.9759 21.6918C16.7429 21.5696 16.4474 21.5085 16.0895 21.5085H14.8452V28.7273H13Z" fill="#9C7330"/>
<path d="M23.8633 28.7273H20.7695V20H23.8888C24.7667 20 25.5224 20.1747 26.1559 20.5241C26.7894 20.8707 27.2766 21.3693 27.6175 22.0199C27.9613 22.6705 28.1332 23.4489 28.1332 24.3551C28.1332 25.2642 27.9613 26.0455 27.6175 26.6989C27.2766 27.3523 26.7866 27.8537 26.1474 28.2031C25.511 28.5526 24.7496 28.7273 23.8633 28.7273ZM22.6147 27.1463H23.7866C24.332 27.1463 24.7908 27.0497 25.163 26.8565C25.538 26.6605 25.8192 26.358 26.0067 25.9489C26.1971 25.5369 26.2923 25.0057 26.2923 24.3551C26.2923 23.7102 26.1971 23.1832 26.0067 22.7741C25.8192 22.3651 25.5394 22.0639 25.1673 21.8707C24.7951 21.6776 24.3363 21.581 23.7908 21.581H22.6147V27.1463Z" fill="#9C7330"/>
<path d="M29.5 28.7273V20H35.2784V21.5213H31.3452V23.6009H34.8949V25.1222H31.3452V28.7273H29.5Z" fill="#9C7330"/>
</g>
</g>
</svg>
