<svg width="196" height="173" viewBox="0 0 196 173" fill="none" xmlns="http://www.w3.org/2000/svg">
<g id="No Results">
<g id="circle">
<path id="Stroke 1" d="M7.04138 79.5151V81.2903" stroke="#D2D8DF" stroke-width="2.921" stroke-linecap="round"/>
<g id="Group 8">
<path id="Stroke 2" d="M3.33221 80.4766L4.68159 81.9698" stroke="#D2D8DF" stroke-width="2.921" stroke-linecap="round"/>
<path id="Stroke 4" d="M1.75397 84.4514H3.66197" stroke="#D2D8DF" stroke-width="2.921" stroke-linecap="round"/>
<path id="Stroke 6" d="M3.17737 88.4974L4.52674 87.0042" stroke="#D2D8DF" stroke-width="2.921" stroke-linecap="round"/>
</g>
<path id="Stroke 9" d="M7.04138 88.9827V87.2075" stroke="#D2D8DF" stroke-width="2.921" stroke-linecap="round"/>
<path id="Stroke 10" d="M9.79358 87.7992L8.69269 86.6157" stroke="#D2D8DF" stroke-width="2.921" stroke-linecap="round"/>
<path id="Stroke 11" d="M11.9953 84.8406H10.3439" stroke="#D2D8DF" stroke-width="2.921" stroke-linecap="round"/>
<path id="Stroke 12" d="M10.8944 80.6985L9.79352 81.8819" stroke="#D2D8DF" stroke-width="2.921" stroke-linecap="round"/>
<path id="Stroke 13" d="M95.663 2V3.18344" stroke="#D2D8DF" stroke-width="2.921" stroke-linecap="round"/>
<path id="Stroke 15" d="M92.3603 5.55029H93.4612" stroke="#D2D8DF" stroke-width="2.921" stroke-linecap="round"/>
<path id="Stroke 16" d="M95.663 9.10067V7.91724" stroke="#D2D8DF" stroke-width="2.921" stroke-linecap="round"/>
<path id="Stroke 17" d="M98.4151 5.55029H97.3142" stroke="#D2D8DF" stroke-width="2.921" stroke-linecap="round"/>
<path id="Stroke 18" d="M31.8113 51.7043V53.4795" stroke="#D2D8DF" stroke-width="2.921" stroke-linecap="round"/>
<path id="Stroke 19" d="M26.8572 57.0298H28.5086" stroke="#D2D8DF" stroke-width="2.921" stroke-linecap="round"/>
<path id="Stroke 20" d="M31.8113 61.7637V59.9885" stroke="#D2D8DF" stroke-width="2.921" stroke-linecap="round"/>
<path id="Stroke 21" d="M36.2149 57.0298H34.5636" stroke="#D2D8DF" stroke-width="2.921" stroke-linecap="round"/>
<g id="Group 42">
<path id="Stroke 22" d="M150.297 116.225C151.612 116.225 152.679 117.372 152.679 118.786C152.679 120.201 151.612 121.348 150.297 121.348C148.981 121.348 147.914 120.201 147.914 118.786" stroke="#D2D8DF" stroke-width="2.921" stroke-linecap="round"/>
<path id="Fill 26" fill-rule="evenodd" clip-rule="evenodd" d="M161.199 92.9845C162.614 92.5102 164.782 90.6505 165.284 88.6497C165.739 90.4184 167.647 92.5102 169.369 92.6685C167.431 93.4061 165.578 95.5974 165.284 97.3189C165.084 95.5642 162.521 93.2403 161.199 92.9845Z" fill="#EBECEE"/>
<path id="Fill 28" fill-rule="evenodd" clip-rule="evenodd" d="M15.9977 115.436C16.7052 115.199 17.7889 114.269 18.0399 113.269C18.2674 114.152 19.2212 115.199 20.082 115.278C19.1133 115.646 18.1871 116.742 18.0399 117.603C17.9399 116.726 16.6585 115.563 15.9977 115.436Z" fill="#EBECEE"/>
<path id="Fill 30" fill-rule="evenodd" clip-rule="evenodd" d="M29.1272 33.1228C29.1272 34.2202 28.3001 35.109 27.28 35.109C26.2594 35.109 25.4327 34.2202 25.4327 33.1228C25.4327 32.0259 26.2594 31.1365 27.28 31.1365C28.3001 31.1365 29.1272 32.0259 29.1272 33.1228Z" fill="#D1D8DF"/>
<path id="Fill 32" fill-rule="evenodd" clip-rule="evenodd" d="M152.479 38.4561C152.479 40.2896 151.096 41.7759 149.392 41.7759C147.686 41.7759 146.304 40.2896 146.304 38.4561C146.304 36.6226 147.686 35.1362 149.392 35.1362C151.096 35.1362 152.479 36.6226 152.479 38.4561Z" fill="#EBECEE"/>
<path id="Fill 34" fill-rule="evenodd" clip-rule="evenodd" d="M195.246 29.4614C195.246 30.916 194.149 32.0948 192.797 32.0948C191.444 32.0948 190.348 30.916 190.348 29.4614C190.348 28.0067 191.444 26.8279 192.797 26.8279C194.149 26.8279 195.246 28.0067 195.246 29.4614Z" fill="#EBECEE"/>
<path id="Stroke 36" fill-rule="evenodd" clip-rule="evenodd" d="M63.6509 152.455C63.6509 153.372 62.9598 154.115 62.1069 154.115C61.2546 154.115 60.5634 153.372 60.5634 152.455C60.5634 151.538 61.2546 150.795 62.1069 150.795C62.9598 150.795 63.6509 151.538 63.6509 152.455Z" stroke="#D2D8DF" stroke-width="2.921" stroke-linecap="round"/>
<path id="Stroke 38" fill-rule="evenodd" clip-rule="evenodd" d="M62.7322 20.362C62.7322 21.4594 61.9051 22.3483 60.885 22.3483C59.8648 22.3483 59.0377 21.4594 59.0377 20.362C59.0377 19.2651 59.8648 18.3757 60.885 18.3757C61.9051 18.3757 62.7322 19.2651 62.7322 20.362Z" stroke="#D2D8DF" stroke-width="2.921" stroke-linecap="round"/>
<path id="Stroke 40" fill-rule="evenodd" clip-rule="evenodd" d="M109.852 170.839C108.671 171.321 107.35 170.684 106.901 169.415C106.452 168.146 107.045 166.725 108.226 166.242C109.406 165.76 110.727 166.397 111.176 167.666C111.625 168.935 111.032 170.356 109.852 170.839Z" stroke="#D2D8DF" stroke-width="2.921" stroke-linecap="round"/>
</g>
</g>
<g id="search">
<g id="documents">
<path id="Fill 1" fill-rule="evenodd" clip-rule="evenodd" d="M109.149 123.894H64.0095C60.8324 123.894 58.2318 121.09 58.2318 117.663V48.4661C58.2318 45.0393 60.8324 42.2368 64.0095 42.2368H109.149C112.327 42.2368 114.928 45.0393 114.928 48.4661V117.663C114.928 121.09 112.327 123.894 109.149 123.894Z" fill="#E0E2EE"/>
<path id="Fill 3" fill-rule="evenodd" clip-rule="evenodd" d="M105.295 126.853H60.1564C56.9793 126.853 54.3787 124.049 54.3787 120.622V51.4249C54.3787 47.998 56.9793 45.1956 60.1564 45.1956H105.295C108.474 45.1956 111.074 47.998 111.074 51.4249V120.622C111.074 124.049 108.474 126.853 105.295 126.853Z" fill="#E8EBF2"/>
<path id="Fill 5" fill-rule="evenodd" clip-rule="evenodd" d="M101.548 129.188H56.3152C53.1315 129.188 50.5255 126.396 50.5255 122.983V54.0727C50.5255 50.66 53.1315 47.8691 56.3152 47.8691H101.548C104.733 47.8691 107.339 50.66 107.339 54.0727V122.983C107.339 126.396 104.733 129.188 101.548 129.188Z" fill="#D8DBEA"/>
<path id="Fill 8" fill-rule="evenodd" clip-rule="evenodd" d="M101.548 129.188H56.3152C53.1315 129.188 50.5255 126.396 50.5255 122.983V54.0727C50.5255 50.66 53.1315 47.8691 56.3152 47.8691H101.548C104.733 47.8691 107.339 50.66 107.339 54.0727V122.983C107.339 126.396 104.733 129.188 101.548 129.188Z" fill="#F1F2F7"/>
<path id="Fill 11" fill-rule="evenodd" clip-rule="evenodd" d="M95.0278 68.8643H61.6182C60.664 68.8643 59.8831 68.0656 59.8831 67.0898C59.8831 66.1127 60.664 65.314 61.6182 65.314H95.0278C95.9819 65.314 96.7629 66.1127 96.7629 67.0898C96.7629 68.0656 95.9819 68.8643 95.0278 68.8643Z" fill="#E0E2EE"/>
<path id="Fill 13" fill-rule="evenodd" clip-rule="evenodd" d="M95.0278 79.5152H61.6182C60.664 79.5152 59.8831 78.7164 59.8831 77.7407C59.8831 76.7636 60.664 75.9648 61.6182 75.9648H95.0278C95.9819 75.9648 96.7629 76.7636 96.7629 77.7407C96.7629 78.7164 95.9819 79.5152 95.0278 79.5152Z" fill="#E0E2EE"/>
<path id="Fill 15" fill-rule="evenodd" clip-rule="evenodd" d="M95.0278 90.166H61.6182C60.664 90.166 59.8831 89.3673 59.8831 88.3915C59.8831 87.4158 60.664 86.6157 61.6182 86.6157H95.0278C95.9819 86.6157 96.7629 87.4158 96.7629 88.3915C96.7629 89.3673 95.9819 90.166 95.0278 90.166Z" fill="#E0E2EE"/>
<path id="Fill 17" fill-rule="evenodd" clip-rule="evenodd" d="M95.0278 100.817H61.6182C60.664 100.817 59.8831 100.018 59.8831 99.0424C59.8831 98.0653 60.664 97.2666 61.6182 97.2666H95.0278C95.9819 97.2666 96.7629 98.0653 96.7629 99.0424C96.7629 100.018 95.9819 100.817 95.0278 100.817Z" fill="#E0E2EE"/>
<path id="Fill 19" fill-rule="evenodd" clip-rule="evenodd" d="M79.0574 111.468H61.6256C60.6674 111.468 59.8831 110.669 59.8831 109.693C59.8831 108.716 60.6674 107.917 61.6256 107.917H79.0574C80.0156 107.917 80.8 108.716 80.8 109.693C80.8 110.669 80.0156 111.468 79.0574 111.468Z" fill="#E0E2EE"/>
</g>
<g id="search_2">
<path id="Fill 21" fill-rule="evenodd" clip-rule="evenodd" d="M114.242 97.7025C107.562 104.883 97.2192 105.693 89.7107 100.149C88.7511 99.428 87.8378 98.618 86.9861 97.7025C86.5476 97.2328 86.1344 96.748 85.745 96.2376C84.9661 95.2183 84.2839 94.1312 83.7249 93.008C82.7402 91.111 82.0706 89.098 81.7049 87.0172C80.5254 80.4919 82.2891 73.4682 86.9861 68.4213C91.6943 63.3595 98.2292 61.4759 104.3 62.7316C106.235 63.1366 108.109 63.8563 109.874 64.9027C110.921 65.517 111.918 66.2502 112.868 67.0874C113.341 67.5044 113.792 67.9501 114.23 68.4213C115.083 69.3368 115.848 70.3169 116.506 71.3498C121.665 79.4184 120.91 90.5358 114.242 97.7025Z" fill="white" fill-opacity="0.1"/>
<path id="Fill 23" fill-rule="evenodd" clip-rule="evenodd" d="M112.373 96.2884C105.423 103.761 94.1591 103.76 87.2076 96.2884C80.2651 88.8254 80.2651 76.716 87.2167 69.2446C94.1591 61.7816 105.423 61.7816 112.365 69.2446C119.315 76.716 119.315 88.8254 112.373 96.2884ZM115.94 65.4058C107.019 55.8156 92.5619 55.8156 83.6407 65.4058C74.7207 74.9946 74.713 90.5449 83.6329 100.135C91.7523 108.86 104.478 109.647 113.429 102.483C114.304 101.783 115.146 100.997 115.949 100.135C116.751 99.2717 117.481 98.3666 118.132 97.4268C124.796 87.8032 124.058 74.1326 115.94 65.4058Z" fill="#E0E2EE"/>
<path id="Fill 25" fill-rule="evenodd" clip-rule="evenodd" d="M151.049 136.286L150.674 136.688C148.197 139.353 144.139 139.353 141.66 136.688L118.781 112.094L128.17 102L151.049 126.595C153.528 129.26 153.528 133.621 151.049 136.286Z" fill="url(#paint0_linear_101_37439)"/>
<path id="Fill 27" fill-rule="evenodd" clip-rule="evenodd" d="M118.625 96.6748L125.386 103.943L120.586 109.101L113.827 101.833C114.719 101.118 115.577 100.317 116.397 99.4369C117.216 98.5574 117.961 97.6338 118.625 96.6748Z" fill="#E0E2EE"/>
<path id="Fill 29" fill-rule="evenodd" clip-rule="evenodd" d="M150.706 126.292L141.377 136.32L139.698 134.513L149.026 124.486L150.706 126.292Z" fill="#EF545F"/>
<path id="Fill 31" fill-rule="evenodd" clip-rule="evenodd" d="M128.689 102.348L119.104 112.651L117.68 111.121L127.265 100.817L128.689 102.348Z" fill="url(#paint1_linear_101_37439)"/>
<path id="Fill 33" fill-rule="evenodd" clip-rule="evenodd" d="M107.772 66.674L84.2658 91.9412C83.3806 90.2357 82.7787 88.426 82.4513 86.5553L102.761 64.7222C104.5 65.0876 106.185 65.7333 107.772 66.674Z" fill="white" fill-opacity="0.5"/>
<path id="Fill 35" fill-rule="evenodd" clip-rule="evenodd" d="M115.478 72.6799L90.0655 98.4502C89.1554 97.8061 88.2892 97.0813 87.4815 96.2621C87.0656 95.8404 86.6724 95.4079 86.3044 94.9512L112.026 68.8643C112.477 69.2388 112.905 69.6376 113.319 70.0593C114.127 70.8785 114.854 71.7556 115.478 72.6799Z" fill="white" fill-opacity="0.5"/>
</g>
</g>
</g>
<defs>
<linearGradient id="paint0_linear_101_37439" x1="135.844" y1="83.6572" x2="99.2537" y2="117.696" gradientUnits="userSpaceOnUse">
<stop stop-color="#FF8960"/>
<stop offset="1" stop-color="#FF62A5"/>
</linearGradient>
<linearGradient id="paint1_linear_101_37439" x1="123.184" y1="94.8997" x2="111.381" y2="105.88" gradientUnits="userSpaceOnUse">
<stop stop-color="#FF404E"/>
<stop offset="1" stop-color="#FF62A5"/>
</linearGradient>
</defs>
</svg>
