<svg width="28" height="28" viewBox="0 0 28 28" fill="none" xmlns="http://www.w3.org/2000/svg">
<g id="24px / PDF File" clip-path="url(#clip0_479_708)">
<path id="Vector" d="M22.0033 16.9578H11.0369C10.7352 16.9578 10.4906 17.2024 10.4906 17.5041C10.4906 17.8057 10.7352 18.0504 11.0369 18.0504H22.0033C22.3049 18.0504 22.5496 17.8057 22.5496 17.5041C22.5496 17.2024 22.3049 16.9578 22.0033 16.9578Z" fill="#485484"/>
<path id="Vector_2" d="M22.0033 19.678H11.0369C10.7352 19.678 10.4906 19.9226 10.4906 20.2243C10.4906 20.5259 10.7352 20.7706 11.0369 20.7706H22.0033C22.3049 20.7706 22.5496 20.5259 22.5496 20.2243C22.5496 19.9226 22.3049 19.678 22.0033 19.678Z" fill="#485484"/>
<path id="Vector_3" d="M22.0033 22.3982H11.0369C10.7352 22.3982 10.4906 22.6428 10.4906 22.9445C10.4906 23.2462 10.7352 23.4908 11.0369 23.4908H22.0033C22.3049 23.4908 22.5496 23.2462 22.5496 22.9445C22.5496 22.6428 22.3049 22.3982 22.0033 22.3982Z" fill="#485484"/>
<path id="Vector_4" d="M6.01344 7.12378H5.08932C4.89429 7.12378 4.71313 7.25844 4.71313 7.49991V10.0587C4.71313 10.3235 4.87102 10.4581 5.08932 10.4581C5.30756 10.4581 5.46544 10.3235 5.46544 10.0587V9.36677H6.0366C6.75176 9.36677 7.14646 8.89308 7.14646 8.24763C7.14651 7.49991 6.59393 7.12378 6.01344 7.12378ZM5.86943 8.6981H5.46539V7.7925H5.86943C6.16667 7.7925 6.3664 7.95044 6.3664 8.24763C6.3664 8.4798 6.18989 8.6981 5.86943 8.6981Z" fill="#485484"/>
<path id="Vector_5" d="M8.74843 7.12378H7.84753C7.6525 7.12378 7.47134 7.25844 7.47134 7.49991V10.0541C7.47134 10.2956 7.65244 10.4303 7.84753 10.4303H8.74843C9.56574 10.4303 10.2902 9.83582 10.2902 8.75377C10.2902 7.90395 9.73297 7.12378 8.74843 7.12378ZM8.623 9.73367H8.2236V7.82042H8.6555C9.20344 7.82042 9.48211 8.19655 9.48211 8.75383C9.48216 9.32962 9.20814 9.73367 8.623 9.73367Z" fill="#485484"/>
<path id="Vector_6" d="M12.1893 7.82037C12.4262 7.82037 12.5655 7.69029 12.5655 7.47204C12.5655 7.26309 12.4262 7.12378 12.1893 7.12378H11.0376C10.8426 7.12378 10.6615 7.25844 10.6615 7.49991V10.0587C10.6615 10.3235 10.8193 10.4581 11.0376 10.4581C11.2559 10.4581 11.4138 10.3235 11.4138 10.0587V9.10674H12.0918C12.3286 9.10674 12.468 8.97202 12.468 8.75841C12.468 8.54481 12.3286 8.41015 12.0918 8.41015H11.4138V7.82037H12.1893Z" fill="#485484"/>
<path id="Vector_7" d="M10.7368 5.46326C11.0387 5.46326 11.2834 5.21855 11.2834 4.91669C11.2834 4.61483 11.0387 4.37012 10.7368 4.37012C10.4349 4.37012 10.1902 4.61483 10.1902 4.91669C10.1902 5.21855 10.4349 5.46326 10.7368 5.46326Z" fill="#485484"/>
<path id="Vector_8" d="M26.4664 5.93641C26.4647 5.9321 26.4628 5.92783 26.461 5.92352C26.4598 5.92079 26.4587 5.91806 26.4575 5.91532C26.455 5.90991 26.4519 5.90489 26.4494 5.89954C26.4456 5.89189 26.4419 5.88418 26.4377 5.87675C26.3649 5.72882 26.2704 5.59443 26.1542 5.47818L21.114 0.438022C20.9981 0.322152 20.8642 0.227916 20.7162 0.154876C20.7076 0.150068 20.6987 0.145753 20.6899 0.141382C20.6851 0.139142 20.6807 0.136465 20.676 0.13428C20.6736 0.133188 20.6712 0.132314 20.6689 0.131276C20.6645 0.129364 20.6601 0.127506 20.6557 0.125649C20.4657 0.0425567 20.2643 0 20.0563 0H7.91477C7.04299 0 6.33378 0.709205 6.33378 1.58099V4.37039H3.08768C2.16137 4.37039 1.40781 5.12396 1.40781 6.05026V11.4313C1.40781 12.3576 2.16137 13.1112 3.08768 13.1112H6.33378V26.419C6.33378 27.2908 7.04299 28 7.91477 28H25.0112C25.883 28 26.5922 27.2908 26.5922 26.419V6.53592C26.5922 6.32811 26.5497 6.1269 26.4664 5.93641ZM24.727 5.59629H21.1166C21.05 5.59629 20.9959 5.54215 20.9959 5.47555V1.86517L24.727 5.59629ZM25.0112 26.9074H7.91477C7.64545 26.9074 7.42638 26.6883 7.42638 26.419V13.1112H13.9863C14.9126 13.1112 15.6662 12.3576 15.6662 11.4313V6.05026C15.6662 5.12396 14.9126 4.37039 13.9863 4.37039H13.481C13.1793 4.37039 12.9347 4.61502 12.9347 4.91669C12.9347 5.21836 13.1793 5.46299 13.481 5.46299H13.9863C14.3102 5.46299 14.5736 5.72641 14.5736 6.05026V11.4313C14.5736 11.7551 14.3102 12.0186 13.9863 12.0186H3.08768C2.76383 12.0186 2.5004 11.7551 2.5004 11.4313V6.05026C2.5004 5.72641 2.76383 5.46299 3.08768 5.46299H7.99071C8.29237 5.46299 8.53701 5.21836 8.53701 4.91669C8.53701 4.61502 8.29237 4.37039 7.99071 4.37039H7.42638V1.58099C7.42638 1.31166 7.6455 1.0926 7.91477 1.0926H19.9033V5.47555C19.9033 6.14461 20.4476 6.68888 21.1166 6.68888H25.4996V26.419C25.4996 26.6883 25.2805 26.9074 25.0112 26.9074Z" fill="#485484"/>
</g>
<defs>
<clipPath id="clip0_479_708">
<rect width="28" height="28" fill="white"/>
</clipPath>
</defs>
</svg>
