<svg width="33" height="32" viewBox="0 0 33 32" fill="none" xmlns="http://www.w3.org/2000/svg">
<g id="tick-circle">
<g id="vuesax/bold/tick-circle">
<g id="tick-circle_2">
<path id="Vector" d="M16.5001 2.66663C9.15341 2.66663 3.16675 8.65329 3.16675 16C3.16675 23.3466 9.15341 29.3333 16.5001 29.3333C23.8467 29.3333 29.8334 23.3466 29.8334 16C29.8334 8.65329 23.8467 2.66663 16.5001 2.66663ZM22.8734 12.9333L15.3134 20.4933C15.1267 20.68 14.8734 20.7866 14.6067 20.7866C14.3401 20.7866 14.0867 20.68 13.9001 20.4933L10.1267 16.72C9.74008 16.3333 9.74008 15.6933 10.1267 15.3066C10.5134 14.92 11.1534 14.92 11.5401 15.3066L14.6067 18.3733L21.4601 11.52C21.8467 11.1333 22.4867 11.1333 22.8734 11.52C23.2601 11.9066 23.2601 12.5333 22.8734 12.9333Z" fill="white"/>
</g>
</g>
</g>
</svg>
